<svg height="5742" width="720" xmlns="http://www.w3.org/2000/svg">
<rect height="5742" fill="#555" width="720"></rect>
<text fill="#7f7" font-family="Courier New" font-size="12" xml:space="preserve">
<tspan x="10" y="26">└─┬ clam@1.0.12 </tspan>
<tspan x="10" y="42">  ├─┬ commander@1.0.5 </tspan>
<tspan x="10" y="58">  │ └── keypress@0.1.0 </tspan>
<tspan x="10" y="74">  ├─┬ condenser@0.0.20 </tspan>
<tspan x="10" y="90">  │ ├─┬ debug@2.6.3 </tspan>
<tspan x="10" y="106">  │ │ └── ms@0.7.2 </tspan>
<tspan x="10" y="122">  │ ├─┬ express@4.15.2 </tspan>
<tspan x="10" y="138">  │ │ ├─┬ accepts@1.3.3 </tspan>
<tspan x="10" y="154">  │ │ │ └── negotiator@0.6.1 </tspan>
<tspan x="10" y="170">  │ │ ├── array-flatten@1.1.1 </tspan>
<tspan x="10" y="186">  │ │ ├── content-disposition@0.5.2 </tspan>
<tspan x="10" y="202">  │ │ ├── content-type@1.0.2 </tspan>
<tspan x="10" y="218">  │ │ ├── cookie@0.3.1 </tspan>
<tspan x="10" y="234">  │ │ ├── cookie-signature@1.0.6 </tspan>
<tspan x="10" y="250">  │ │ ├── debug@2.6.1 </tspan>
<tspan x="10" y="266">  │ │ ├── depd@1.1.0 </tspan>
<tspan x="10" y="282">  │ │ ├── encodeurl@1.0.1 </tspan>
<tspan x="10" y="298">  │ │ ├── escape-html@1.0.3 </tspan>
<tspan x="10" y="314">  │ │ ├── etag@1.8.0 </tspan>
<tspan x="10" y="330">  │ │ ├─┬ finalhandler@1.0.1 </tspan>
<tspan x="10" y="346">  │ │ │ ├── debug@2.6.3 </tspan>
<tspan x="10" y="362">  │ │ │ └── unpipe@1.0.0 </tspan>
<tspan x="10" y="378">  │ │ ├── fresh@0.5.0 </tspan>
<tspan x="10" y="394">  │ │ ├── merge-descriptors@1.0.1 </tspan>
<tspan x="10" y="410">  │ │ ├── methods@1.1.2 </tspan>
<tspan x="10" y="426">  │ │ ├─┬ on-finished@2.3.0 </tspan>
<tspan x="10" y="442">  │ │ │ └── ee-first@1.1.1 </tspan>
<tspan x="10" y="458">  │ │ ├── parseurl@1.3.1 </tspan>
<tspan x="10" y="474">  │ │ ├── path-to-regexp@0.1.7 </tspan>
<tspan x="10" y="490">  │ │ ├─┬ proxy-addr@1.1.4 </tspan>
<tspan x="10" y="506">  │ │ │ ├── forwarded@0.1.0 </tspan>
<tspan x="10" y="522">  │ │ │ └── ipaddr.js@1.3.0 </tspan>
<tspan x="10" y="538">  │ │ ├── qs@6.4.0 </tspan>
<tspan x="10" y="554">  │ │ ├── range-parser@1.2.0 </tspan>
<tspan x="10" y="570">  │ │ ├─┬ send@0.15.1 </tspan>
<tspan x="10" y="586">  │ │ │ ├── destroy@1.0.4 </tspan>
<tspan x="10" y="602">  │ │ │ ├── http-errors@1.6.1 </tspan>
<tspan x="10" y="618">  │ │ │ └── mime@1.3.4 </tspan>
<tspan x="10" y="634">  │ │ ├─┬ serve-static@1.12.1 </tspan>
<tspan x="10" y="650">  │ │ │ └─┬ send@0.15.1 </tspan>
<tspan x="10" y="666">  │ │ │   ├── debug@2.6.1 </tspan>
<tspan x="10" y="682">  │ │ │   └── mime@1.3.4 </tspan>
<tspan x="10" y="698">  │ │ ├── setprototypeof@1.0.3 </tspan>
<tspan x="10" y="714">  │ │ ├── statuses@1.3.1 </tspan>
<tspan x="10" y="730">  │ │ ├─┬ type-is@1.6.15 </tspan>
<tspan x="10" y="746">  │ │ │ └── media-typer@0.3.0 </tspan>
<tspan x="10" y="762">  │ │ ├── utils-merge@1.0.0 </tspan>
<tspan x="10" y="778">  │ │ └── vary@1.1.1 </tspan>
<tspan x="10" y="794">  │ └─┬ ws@2.2.3 </tspan>
<tspan x="10" y="810">  │   ├── safe-buffer@5.0.1 </tspan>
<tspan x="10" y="826">  │   └── ultron@1.1.0 </tspan>
<tspan x="10" y="842">  ├─┬ cpr@0.1.1 </tspan>
<tspan x="10" y="858">  │ ├── graceful-fs@1.2.3 </tspan>
<tspan x="10" y="874">  │ └─┬ rimraf@2.0.3 </tspan>
<tspan x="10" y="890">  │   └── graceful-fs@1.1.14 </tspan>
<tspan x="10" y="906">  ├── debug@0.7.4 </tspan>
<tspan x="10" y="922">  ├─┬ doji@0.1.6 </tspan>
<tspan x="10" y="938">  │ ├─┬ cheerio@0.17.0 </tspan>
<tspan x="10" y="954">  │ │ ├─┬ CSSselect@0.4.1 </tspan>
<tspan x="10" y="970">  │ │ │ ├── CSSwhat@0.4.7 </tspan>
<tspan x="10" y="986">  │ │ │ └── domutils@1.4.3 </tspan>
<tspan x="10" y="1002">  │ │ ├─┬ dom-serializer@0.0.1 </tspan>
<tspan x="10" y="1018">  │ │ │ └── domelementtype@1.1.3 </tspan>
<tspan x="10" y="1034">  │ │ ├── entities@1.1.1 </tspan>
<tspan x="10" y="1050">  │ │ ├─┬ htmlparser2@3.7.3 </tspan>
<tspan x="10" y="1066">  │ │ │ ├── domelementtype@1.3.0 </tspan>
<tspan x="10" y="1082">  │ │ │ ├── domhandler@2.2.1 </tspan>
<tspan x="10" y="1098">  │ │ │ ├── domutils@1.5.1 </tspan>
<tspan x="10" y="1114">  │ │ │ ├── entities@1.0.0 </tspan>
<tspan x="10" y="1130">  │ │ │ └── readable-stream@1.1.14 </tspan>
<tspan x="10" y="1146">  │ │ └── lodash@2.4.2 </tspan>
<tspan x="10" y="1162">  │ ├─┬ debug@1.0.4 </tspan>
<tspan x="10" y="1178">  │ │ └── ms@0.6.2 </tspan>
<tspan x="10" y="1194">  │ ├── deflate-js@0.2.3 </tspan>
<tspan x="10" y="1210">  │ ├─┬ gzip-js@0.3.2 </tspan>
<tspan x="10" y="1226">  │ │ └── crc32@0.2.2 </tspan>
<tspan x="10" y="1242">  │ └── mace@0.0.7 </tspan>
<tspan x="10" y="1258">  ├─┬ essi@0.10.30 </tspan>
<tspan x="10" y="1274">  │ ├── fetch-agent@0.4.5 </tspan>
<tspan x="10" y="1290">  │ ├─┬ js-beautify@1.5.10 </tspan>
<tspan x="10" y="1306">  │ │ ├─┬ config-chain@1.1.11 </tspan>
<tspan x="10" y="1322">  │ │ │ ├── ini@1.3.4 </tspan>
<tspan x="10" y="1338">  │ │ │ └── proto-list@1.2.4 </tspan>
<tspan x="10" y="1354">  │ │ ├── mkdirp@0.5.1 </tspan>
<tspan x="10" y="1370">  │ │ └─┬ nopt@3.0.6 </tspan>
<tspan x="10" y="1386">  │ │   └── abbrev@1.1.0 </tspan>
<tspan x="10" y="1402">  │ ├── merge@1.2.0 </tspan>
<tspan x="10" y="1418">  │ ├─┬ mkdirp@0.5.1 </tspan>
<tspan x="10" y="1434">  │ │ └── minimist@0.0.8 </tspan>
<tspan x="10" y="1450">  │ ├── plug-trace@0.1.5 </tspan>
<tspan x="10" y="1466">  │ ├─┬ through2@0.6.5 </tspan>
<tspan x="10" y="1482">  │ │ ├─┬ readable-stream@1.0.34 </tspan>
<tspan x="10" y="1498">  │ │ │ ├── core-util-is@1.0.2 </tspan>
<tspan x="10" y="1514">  │ │ │ ├── inherits@2.0.3 </tspan>
<tspan x="10" y="1530">  │ │ │ ├── isarray@0.0.1 </tspan>
<tspan x="10" y="1546">  │ │ │ └── string_decoder@0.10.31 </tspan>
<tspan x="10" y="1562">  │ │ └── xtend@4.0.1 </tspan>
<tspan x="10" y="1578">  │ └─┬ velocity@0.7.2 </tspan>
<tspan x="10" y="1594">  │   ├── colorful@2.1.0 </tspan>
<tspan x="10" y="1610">  │   ├── commander@2.3.0 </tspan>
<tspan x="10" y="1626">  │   ├─┬ tracer@0.7.4 </tspan>
<tspan x="10" y="1642">  │   │ ├── colors@1.0.3 </tspan>
<tspan x="10" y="1658">  │   │ ├─┬ dateformat@1.0.11 </tspan>
<tspan x="10" y="1674">  │   │ │ ├── get-stdin@5.0.1 </tspan>
<tspan x="10" y="1690">  │   │ │ └─┬ meow@3.7.0 </tspan>
<tspan x="10" y="1706">  │   │ │   ├─┬ camelcase-keys@2.1.0 </tspan>
<tspan x="10" y="1722">  │   │ │   │ └── camelcase@2.1.1 </tspan>
<tspan x="10" y="1738">  │   │ │   ├── decamelize@1.2.0 </tspan>
<tspan x="10" y="1754">  │   │ │   ├─┬ loud-rejection@1.6.0 </tspan>
<tspan x="10" y="1770">  │   │ │   │ ├─┬ currently-unhandled@0.4.1 </tspan>
<tspan x="10" y="1786">  │   │ │   │ │ └── array-find-index@1.0.2 </tspan>
<tspan x="10" y="1802">  │   │ │   │ └── signal-exit@3.0.2 </tspan>
<tspan x="10" y="1818">  │   │ │   ├── map-obj@1.0.1 </tspan>
<tspan x="10" y="1834">  │   │ │   ├── minimist@1.2.0 </tspan>
<tspan x="10" y="1850">  │   │ │   ├─┬ normalize-package-data@2.3.6 </tspan>
<tspan x="10" y="1866">  │   │ │   │ ├── hosted-git-info@2.4.1 </tspan>
<tspan x="10" y="1882">  │   │ │   │ ├─┬ is-builtin-module@1.0.0 </tspan>
<tspan x="10" y="1898">  │   │ │   │ │ └── builtin-modules@1.1.1 </tspan>
<tspan x="10" y="1914">  │   │ │   │ └─┬ validate-npm-package-license@3.0.1 </tspan>
<tspan x="10" y="1930">  │   │ │   │   ├─┬ spdx-correct@1.0.2 </tspan>
<tspan x="10" y="1946">  │   │ │   │   │ └── spdx-license-ids@1.2.2 </tspan>
<tspan x="10" y="1962">  │   │ │   │   └── spdx-expression-parse@1.0.4 </tspan>
<tspan x="10" y="1978">  │   │ │   ├── object-assign@4.1.1 </tspan>
<tspan x="10" y="1994">  │   │ │   ├─┬ read-pkg-up@1.0.1 </tspan>
<tspan x="10" y="2010">  │   │ │   │ ├─┬ find-up@1.1.2 </tspan>
<tspan x="10" y="2026">  │   │ │   │ │ └── path-exists@2.1.0 </tspan>
<tspan x="10" y="2042">  │   │ │   │ └─┬ read-pkg@1.1.0 </tspan>
<tspan x="10" y="2058">  │   │ │   │   ├─┬ load-json-file@1.1.0 </tspan>
<tspan x="10" y="2074">  │   │ │   │   │ ├── graceful-fs@4.1.11 </tspan>
<tspan x="10" y="2090">  │   │ │   │   │ ├─┬ parse-json@2.2.0 </tspan>
<tspan x="10" y="2106">  │   │ │   │   │ │ └─┬ error-ex@1.3.1 </tspan>
<tspan x="10" y="2122">  │   │ │   │   │ │   └── is-arrayish@0.2.1 </tspan>
<tspan x="10" y="2138">  │   │ │   │   │ ├── pify@2.3.0 </tspan>
<tspan x="10" y="2154">  │   │ │   │   │ └── strip-bom@2.0.0 </tspan>
<tspan x="10" y="2170">  │   │ │   │   └─┬ path-type@1.1.0 </tspan>
<tspan x="10" y="2186">  │   │ │   │     └── graceful-fs@4.1.11 </tspan>
<tspan x="10" y="2202">  │   │ │   ├─┬ redent@1.0.0 </tspan>
<tspan x="10" y="2218">  │   │ │   │ ├─┬ indent-string@2.1.0 </tspan>
<tspan x="10" y="2234">  │   │ │   │ │ └─┬ repeating@2.0.1 </tspan>
<tspan x="10" y="2250">  │   │ │   │ │   └─┬ is-finite@1.0.2 </tspan>
<tspan x="10" y="2266">  │   │ │   │ │     └── number-is-nan@1.0.1 </tspan>
<tspan x="10" y="2282">  │   │ │   │ └─┬ strip-indent@1.0.1 </tspan>
<tspan x="10" y="2298">  │   │ │   │   └── get-stdin@4.0.1 </tspan>
<tspan x="10" y="2314">  │   │ │   └── trim-newlines@1.0.0 </tspan>
<tspan x="10" y="2330">  │   │ └── tinytim@0.1.1 </tspan>
<tspan x="10" y="2346">  │   └─┬ utilx@0.0.5 </tspan>
<tspan x="10" y="2362">  │     └── iconv-lite@0.2.11 </tspan>
<tspan x="10" y="2378">  ├─┬ flex-combo@0.12.20 </tspan>
<tspan x="10" y="2394">  │ ├── async@1.4.2 </tspan>
<tspan x="10" y="2410">  │ ├── commander@2.5.1 </tspan>
<tspan x="10" y="2426">  │ ├─┬ dac@0.6.5 </tspan>
<tspan x="10" y="2442">  │ │ └─┬ less@2.5.3 </tspan>
<tspan x="10" y="2458">  │ │   ├─┬ errno@0.1.4 </tspan>
<tspan x="10" y="2474">  │ │   │ └── prr@0.0.0 </tspan>
<tspan x="10" y="2490">  │ │   ├── graceful-fs@3.0.11 </tspan>
<tspan x="10" y="2506">  │ │   ├── image-size@0.3.5 </tspan>
<tspan x="10" y="2522">  │ │   ├── mkdirp@0.5.1 </tspan>
<tspan x="10" y="2538">  │ │   └─┬ promise@6.1.0 </tspan>
<tspan x="10" y="2554">  │ │     └── asap@1.0.0 </tspan>
<tspan x="10" y="2570">  │ ├─┬ inline-source-map-comment@1.0.5 </tspan>
<tspan x="10" y="2586">  │ │ ├── get-stdin@4.0.1 </tspan>
<tspan x="10" y="2602">  │ │ ├── minimist@1.2.0 </tspan>
<tspan x="10" y="2618">  │ │ └── sum-up@1.0.3 </tspan>
<tspan x="10" y="2634">  │ ├── mime@1.3.4 </tspan>
<tspan x="10" y="2650">  │ ├── mkdirp@0.5.1 </tspan>
<tspan x="10" y="2666">  │ ├─┬ source-map-concat@1.0.1 </tspan>
<tspan x="10" y="2682">  │ │ ├── source-map@0.5.6 </tspan>
<tspan x="10" y="2698">  │ │ └── urix@0.1.0 </tspan>
<tspan x="10" y="2714">  │ └─┬ source-map-dummy@1.0.0 </tspan>
<tspan x="10" y="2730">  │   ├── css-tokens@1.0.1 </tspan>
<tspan x="10" y="2746">  │   ├── js-tokens@1.0.3 </tspan>
<tspan x="10" y="2762">  │   └── source-map@0.4.4 </tspan>
<tspan x="10" y="2778">  ├── iconv-lite@0.4.15 </tspan>
<tspan x="10" y="2794">  ├── is-utf8@0.2.1 </tspan>
<tspan x="10" y="2810">  ├── joinbuffers@0.1.1 </tspan>
<tspan x="10" y="2826">  ├─┬ juicer@0.6.14 </tspan>
<tspan x="10" y="2842">  │ ├─┬ optimist@0.3.7 </tspan>
<tspan x="10" y="2858">  │ │ └── wordwrap@0.0.3 </tspan>
<tspan x="10" y="2874">  │ └── uglify-js@1.2.6 </tspan>
<tspan x="10" y="2890">  ├─┬ less@1.6.0 </tspan>
<tspan x="10" y="2906">  │ ├─┬ clean-css@2.0.8 </tspan>
<tspan x="10" y="2922">  │ │ └── commander@2.0.0 </tspan>
<tspan x="10" y="2938">  │ ├─┬ request@2.81.0 </tspan>
<tspan x="10" y="2954">  │ │ ├── aws-sign2@0.6.0 </tspan>
<tspan x="10" y="2970">  │ │ ├── aws4@1.6.0 </tspan>
<tspan x="10" y="2986">  │ │ ├── caseless@0.12.0 </tspan>
<tspan x="10" y="3002">  │ │ ├─┬ combined-stream@1.0.5 </tspan>
<tspan x="10" y="3018">  │ │ │ └── delayed-stream@1.0.0 </tspan>
<tspan x="10" y="3034">  │ │ ├── extend@3.0.0 </tspan>
<tspan x="10" y="3050">  │ │ ├── forever-agent@0.6.1 </tspan>
<tspan x="10" y="3066">  │ │ ├─┬ form-data@2.1.2 </tspan>
<tspan x="10" y="3082">  │ │ │ └── asynckit@0.4.0 </tspan>
<tspan x="10" y="3098">  │ │ ├─┬ har-validator@4.2.1 </tspan>
<tspan x="10" y="3114">  │ │ │ ├─┬ ajv@4.11.5 </tspan>
<tspan x="10" y="3130">  │ │ │ │ ├── co@4.6.0 </tspan>
<tspan x="10" y="3146">  │ │ │ │ └─┬ json-stable-stringify@1.0.1 </tspan>
<tspan x="10" y="3162">  │ │ │ │   └── jsonify@0.0.0 </tspan>
<tspan x="10" y="3178">  │ │ │ └── har-schema@1.0.5 </tspan>
<tspan x="10" y="3194">  │ │ ├─┬ hawk@3.1.3 </tspan>
<tspan x="10" y="3210">  │ │ │ ├── boom@2.10.1 </tspan>
<tspan x="10" y="3226">  │ │ │ ├── cryptiles@2.0.5 </tspan>
<tspan x="10" y="3242">  │ │ │ ├── hoek@2.16.3 </tspan>
<tspan x="10" y="3258">  │ │ │ └── sntp@1.0.9 </tspan>
<tspan x="10" y="3274">  │ │ ├─┬ http-signature@1.1.1 </tspan>
<tspan x="10" y="3290">  │ │ │ ├── assert-plus@0.2.0 </tspan>
<tspan x="10" y="3306">  │ │ │ ├─┬ jsprim@1.4.0 </tspan>
<tspan x="10" y="3322">  │ │ │ │ ├── assert-plus@1.0.0 </tspan>
<tspan x="10" y="3338">  │ │ │ │ ├── extsprintf@1.0.2 </tspan>
<tspan x="10" y="3354">  │ │ │ │ ├── json-schema@0.2.3 </tspan>
<tspan x="10" y="3370">  │ │ │ │ └── verror@1.3.6 </tspan>
<tspan x="10" y="3386">  │ │ │ └─┬ sshpk@1.11.0 </tspan>
<tspan x="10" y="3402">  │ │ │   ├── asn1@0.2.3 </tspan>
<tspan x="10" y="3418">  │ │ │   ├── assert-plus@1.0.0 </tspan>
<tspan x="10" y="3434">  │ │ │   ├── bcrypt-pbkdf@1.0.1 </tspan>
<tspan x="10" y="3450">  │ │ │   ├─┬ dashdash@1.14.1 </tspan>
<tspan x="10" y="3466">  │ │ │   │ └── assert-plus@1.0.0 </tspan>
<tspan x="10" y="3482">  │ │ │   ├── ecc-jsbn@0.1.1 </tspan>
<tspan x="10" y="3498">  │ │ │   ├─┬ getpass@0.1.6 </tspan>
<tspan x="10" y="3514">  │ │ │   │ └── assert-plus@1.0.0 </tspan>
<tspan x="10" y="3530">  │ │ │   ├── jodid25519@1.0.2 </tspan>
<tspan x="10" y="3546">  │ │ │   ├── jsbn@0.1.1 </tspan>
<tspan x="10" y="3562">  │ │ │   └── tweetnacl@0.14.5 </tspan>
<tspan x="10" y="3578">  │ │ ├── is-typedarray@1.0.0 </tspan>
<tspan x="10" y="3594">  │ │ ├── isstream@0.1.2 </tspan>
<tspan x="10" y="3610">  │ │ ├── json-stringify-safe@5.0.1 </tspan>
<tspan x="10" y="3626">  │ │ ├─┬ mime-types@2.1.15 </tspan>
<tspan x="10" y="3642">  │ │ │ └── mime-db@1.27.0 </tspan>
<tspan x="10" y="3658">  │ │ ├── oauth-sign@0.8.2 </tspan>
<tspan x="10" y="3674">  │ │ ├── performance-now@0.2.0 </tspan>
<tspan x="10" y="3690">  │ │ ├── stringstream@0.0.5 </tspan>
<tspan x="10" y="3706">  │ │ ├─┬ tough-cookie@2.3.2 </tspan>
<tspan x="10" y="3722">  │ │ │ └── punycode@1.4.1 </tspan>
<tspan x="10" y="3738">  │ │ ├── tunnel-agent@0.6.0 </tspan>
<tspan x="10" y="3754">  │ │ └── uuid@3.0.1 </tspan>
<tspan x="10" y="3770">  │ └─┬ source-map@0.1.43 </tspan>
<tspan x="10" y="3786">  │   └── amdefine@1.0.1 </tspan>
<tspan x="10" y="3802">  ├── mime@1.2.11 </tspan>
<tspan x="10" y="3818">  ├── mkdirp@0.3.5 </tspan>
<tspan x="10" y="3834">  ├─┬ plug-base@0.9.17 </tspan>
<tspan x="10" y="3850">  │ ├─┬ body-parser@1.14.2 </tspan>
<tspan x="10" y="3866">  │ │ ├── bytes@2.2.0 </tspan>
<tspan x="10" y="3882">  │ │ ├─┬ debug@2.2.0 </tspan>
<tspan x="10" y="3898">  │ │ │ └── ms@0.7.1 </tspan>
<tspan x="10" y="3914">  │ │ ├── http-errors@1.3.1 </tspan>
<tspan x="10" y="3930">  │ │ ├── iconv-lite@0.4.13 </tspan>
<tspan x="10" y="3946">  │ │ ├── qs@5.2.0 </tspan>
<tspan x="10" y="3962">  │ │ └─┬ raw-body@2.1.7 </tspan>
<tspan x="10" y="3978">  │ │   ├── bytes@2.4.0 </tspan>
<tspan x="10" y="3994">  │ │   └── iconv-lite@0.4.13 </tspan>
<tspan x="10" y="4010">  │ ├─┬ chalk@1.1.3 </tspan>
<tspan x="10" y="4026">  │ │ ├── ansi-styles@2.2.1 </tspan>
<tspan x="10" y="4042">  │ │ ├── escape-string-regexp@1.0.5 </tspan>
<tspan x="10" y="4058">  │ │ ├─┬ has-ansi@2.0.0 </tspan>
<tspan x="10" y="4074">  │ │ │ └── ansi-regex@2.1.1 </tspan>
<tspan x="10" y="4090">  │ │ ├── strip-ansi@3.0.1 </tspan>
<tspan x="10" y="4106">  │ │ └── supports-color@2.0.0 </tspan>
<tspan x="10" y="4122">  │ ├─┬ connect@3.4.1 </tspan>
<tspan x="10" y="4138">  │ │ ├─┬ debug@2.2.0 </tspan>
<tspan x="10" y="4154">  │ │ │ └── ms@0.7.1 </tspan>
<tspan x="10" y="4170">  │ │ └── finalhandler@0.4.1 </tspan>
<tspan x="10" y="4186">  │ ├─┬ connect-timeout@1.7.0 </tspan>
<tspan x="10" y="4202">  │ │ ├── debug@2.2.0 </tspan>
<tspan x="10" y="4218">  │ │ ├── http-errors@1.3.1 </tspan>
<tspan x="10" y="4234">  │ │ ├── ms@0.7.1 </tspan>
<tspan x="10" y="4250">  │ │ └── on-headers@1.0.1 </tspan>
<tspan x="10" y="4266">  │ ├─┬ flex-hosts@0.6.11 </tspan>
<tspan x="10" y="4282">  │ │ ├── async@1.5.2 </tspan>
<tspan x="10" y="4298">  │ │ └── mkdirp@0.5.1 </tspan>
<tspan x="10" y="4314">  │ ├── ip@1.1.5 </tspan>
<tspan x="10" y="4330">  │ ├── mime@1.3.4 </tspan>
<tspan x="10" y="4346">  │ ├─┬ multer@1.0.6 </tspan>
<tspan x="10" y="4362">  │ │ ├── append-field@0.1.0 </tspan>
<tspan x="10" y="4378">  │ │ ├─┬ busboy@0.2.14 </tspan>
<tspan x="10" y="4394">  │ │ │ └─┬ dicer@0.2.5 </tspan>
<tspan x="10" y="4410">  │ │ │   └── streamsearch@0.1.2 </tspan>
<tspan x="10" y="4426">  │ │ ├─┬ concat-stream@1.6.0 </tspan>
<tspan x="10" y="4442">  │ │ │ ├─┬ readable-stream@2.2.6 </tspan>
<tspan x="10" y="4458">  │ │ │ │ ├── buffer-shims@1.0.0 </tspan>
<tspan x="10" y="4474">  │ │ │ │ ├── isarray@1.0.0 </tspan>
<tspan x="10" y="4490">  │ │ │ │ ├── process-nextick-args@1.0.7 </tspan>
<tspan x="10" y="4506">  │ │ │ │ └── util-deprecate@1.0.2 </tspan>
<tspan x="10" y="4522">  │ │ │ └── typedarray@0.0.6 </tspan>
<tspan x="10" y="4538">  │ │ ├── mkdirp@0.5.1 </tspan>
<tspan x="10" y="4554">  │ │ └── object-assign@3.0.0 </tspan>
<tspan x="10" y="4570">  │ ├── node-forge@0.6.49 </tspan>
<tspan x="10" y="4586">  │ ├── qrcode-npm@0.0.3 </tspan>
<tspan x="10" y="4602">  │ ├── qs@6.0.4 </tspan>
<tspan x="10" y="4618">  │ ├─┬ serve-index@1.7.3 </tspan>
<tspan x="10" y="4634">  │ │ ├─┬ accepts@1.2.13 </tspan>
<tspan x="10" y="4650">  │ │ │ └── negotiator@0.5.3 </tspan>
<tspan x="10" y="4666">  │ │ ├── batch@0.5.3 </tspan>
<tspan x="10" y="4682">  │ │ ├─┬ debug@2.2.0 </tspan>
<tspan x="10" y="4698">  │ │ │ └── ms@0.7.1 </tspan>
<tspan x="10" y="4714">  │ │ └── http-errors@1.3.1 </tspan>
<tspan x="10" y="4730">  │ ├─┬ serve-static@1.10.3 </tspan>
<tspan x="10" y="4746">  │ │ └─┬ send@0.13.2 </tspan>
<tspan x="10" y="4762">  │ │   ├── debug@2.2.0 </tspan>
<tspan x="10" y="4778">  │ │   ├── etag@1.7.0 </tspan>
<tspan x="10" y="4794">  │ │   ├── fresh@0.3.0 </tspan>
<tspan x="10" y="4810">  │ │   ├── http-errors@1.3.1 </tspan>
<tspan x="10" y="4826">  │ │   ├── ms@0.7.1 </tspan>
<tspan x="10" y="4842">  │ │   ├── range-parser@1.0.3 </tspan>
<tspan x="10" y="4858">  │ │   └── statuses@1.2.1 </tspan>
<tspan x="10" y="4874">  │ └── server-destroy@1.0.1 </tspan>
<tspan x="10" y="4890">  ├─┬ send@0.1.0 </tspan>
<tspan x="10" y="4906">  │ ├── fresh@0.1.0 </tspan>
<tspan x="10" y="4922">  │ ├── mime@1.2.6 </tspan>
<tspan x="10" y="4938">  │ └── range-parser@0.0.4 </tspan>
<tspan x="10" y="4954">  ├── underscore@1.4.4 </tspan>
<tspan x="10" y="4970">  └─┬ update-notifier@0.3.2 </tspan>
<tspan x="10" y="4986">    ├─┬ configstore@0.3.2 </tspan>
<tspan x="10" y="5002">    │ ├─┬ graceful-fs@3.0.11 </tspan>
<tspan x="10" y="5018">    │ │ └── natives@1.1.0 </tspan>
<tspan x="10" y="5034">    │ ├─┬ js-yaml@3.8.3 </tspan>
<tspan x="10" y="5050">    │ │ ├─┬ argparse@1.0.9 </tspan>
<tspan x="10" y="5066">    │ │ │ └── sprintf-js@1.0.3 </tspan>
<tspan x="10" y="5082">    │ │ └── esprima@3.1.3 </tspan>
<tspan x="10" y="5098">    │ ├── mkdirp@0.5.1 </tspan>
<tspan x="10" y="5114">    │ ├── object-assign@2.1.1 </tspan>
<tspan x="10" y="5130">    │ ├─┬ osenv@0.1.4 </tspan>
<tspan x="10" y="5146">    │ │ ├── os-homedir@1.0.2 </tspan>
<tspan x="10" y="5162">    │ │ └── os-tmpdir@1.0.2 </tspan>
<tspan x="10" y="5178">    │ ├── user-home@1.1.1 </tspan>
<tspan x="10" y="5194">    │ ├── uuid@2.0.3 </tspan>
<tspan x="10" y="5210">    │ └── xdg-basedir@1.0.1 </tspan>
<tspan x="10" y="5226">    ├── is-npm@1.0.0 </tspan>
<tspan x="10" y="5242">    ├─┬ latest-version@1.0.1 </tspan>
<tspan x="10" y="5258">    │ └─┬ package-json@1.2.0 </tspan>
<tspan x="10" y="5274">    │   ├─┬ got@3.3.1 </tspan>
<tspan x="10" y="5290">    │   │ ├─┬ duplexify@3.5.0 </tspan>
<tspan x="10" y="5306">    │   │ │ ├─┬ end-of-stream@1.0.0 </tspan>
<tspan x="10" y="5322">    │   │ │ │ └─┬ once@1.3.3 </tspan>
<tspan x="10" y="5338">    │   │ │ │   └── wrappy@1.0.2 </tspan>
<tspan x="10" y="5354">    │   │ │ ├─┬ readable-stream@2.2.6 </tspan>
<tspan x="10" y="5370">    │   │ │ │ └── isarray@1.0.0 </tspan>
<tspan x="10" y="5386">    │   │ │ └── stream-shift@1.0.0 </tspan>
<tspan x="10" y="5402">    │   │ ├── infinity-agent@2.0.3 </tspan>
<tspan x="10" y="5418">    │   │ ├── is-redirect@1.0.0 </tspan>
<tspan x="10" y="5434">    │   │ ├── is-stream@1.1.0 </tspan>
<tspan x="10" y="5450">    │   │ ├── lowercase-keys@1.0.0 </tspan>
<tspan x="10" y="5466">    │   │ ├── nested-error-stacks@1.0.2 </tspan>
<tspan x="10" y="5482">    │   │ ├── object-assign@3.0.0 </tspan>
<tspan x="10" y="5498">    │   │ ├── prepend-http@1.0.4 </tspan>
<tspan x="10" y="5514">    │   │ ├─┬ read-all-stream@3.1.0 </tspan>
<tspan x="10" y="5530">    │   │ │ ├─┬ pinkie-promise@2.0.1 </tspan>
<tspan x="10" y="5546">    │   │ │ │ └── pinkie@2.0.4 </tspan>
<tspan x="10" y="5562">    │   │ │ └─┬ readable-stream@2.2.6 </tspan>
<tspan x="10" y="5578">    │   │ │   └── isarray@1.0.0 </tspan>
<tspan x="10" y="5594">    │   │ └── timed-out@2.0.0 </tspan>
<tspan x="10" y="5610">    │   └─┬ registry-url@3.1.0 </tspan>
<tspan x="10" y="5626">    │     └─┬ rc@1.2.1 </tspan>
<tspan x="10" y="5642">    │       ├── deep-extend@0.4.1 </tspan>
<tspan x="10" y="5658">    │       ├── minimist@1.2.0 </tspan>
<tspan x="10" y="5674">    │       └── strip-json-comments@2.0.1 </tspan>
<tspan x="10" y="5690">    ├─┬ semver-diff@2.1.0 </tspan>
<tspan x="10" y="5706">    │ └── semver@5.3.0 </tspan>
<tspan x="10" y="5722">    └── string-length@1.0.1</tspan>
</text>
</svg>
